<?xml version="1.0" encoding="UTF-8"?>
<svg width="22px" height="22px" viewBox="0 0 22 22" version="1.1" xmlns="http://www.w3.org/2000/svg" xmlns:xlink="http://www.w3.org/1999/xlink">
    <!-- Generator: Sketch 52.5 (67469) - http://www.bohemiancoding.com/sketch -->
    <title>Fill 1 Copy 2</title>
    <desc>Created with Sketch.</desc>
    <g id="Pages" stroke="none" stroke-width="1" fill="none" fill-rule="evenodd">
        <g id="Home" transform="translate(-316.000000, -3731.000000)" fill="#C8A974">
            <path d="M327,3731 C333.076442,3731 338,3735.92356 338,3742 C338,3748.07644 333.076442,3753 327,3753 C320.923558,3753 316,3748.07644 316,3742 C316,3735.92356 320.923558,3731 327,3731 Z M331.447596,3737.83798 L324.847596,3744.48558 L322.351442,3741.98942 L321.410096,3742.93077 L324.371635,3745.89231 C324.503846,3746.02452 324.683654,3746.13029 324.842308,3746.13029 C325.000962,3746.13029 325.175481,3746.02452 325.307692,3745.8976 L332.378365,3738.7899 L331.447596,3737.83798 Z M327,3752.0851 C321.441827,3752.0851 316.914904,3747.56346 316.914904,3742 C316.914904,3736.44183 321.436538,3731.9149 327,3731.9149 C332.558173,3731.9149 337.085096,3736.43654 337.085096,3742 C337.085096,3747.55817 332.558173,3752.0851 327,3752.0851 L327,3752.0851 Z" id="Fill-1-Copy-2"></path>
        </g>
    </g>
</svg>