<?xml version="1.0" encoding="UTF-8"?>
<svg width="45px" height="43px" viewBox="0 0 45 43" version="1.1" xmlns="http://www.w3.org/2000/svg" xmlns:xlink="http://www.w3.org/1999/xlink">
    <!-- Generator: Sketch 52.5 (67469) - http://www.bohemiancoding.com/sketch -->
    <title>Page 1</title>
    <desc>Created with Sketch.</desc>
    <g id="Pages" stroke="none" stroke-width="1" fill="none" fill-rule="evenodd">
        <g id="Home" transform="translate(-790.000000, -3902.000000)" fill="#C8A974">
            <path d="M812.5,3902 C800.074777,3902 790,3911.62701 790,3923.5 C790,3935.37299 800.074777,3945 812.5,3945 C824.925223,3945 835,3935.37299 835,3923.5 C835,3911.62701 824.925223,3902 812.5,3902 L812.5,3902 Z M830.409598,3916.63728 L824.232143,3918.45134 C823.59933,3917.10759 822.715402,3915.87902 821.590402,3914.80402 C820.465402,3913.72902 819.179688,3912.88438 817.773438,3912.27969 L819.671875,3906.37679 C822.0625,3907.28862 824.252232,3908.67076 826.13058,3910.45603 C828.008929,3912.26049 829.455357,3914.3529 830.409598,3916.63728 L830.409598,3916.63728 Z M812.5,3932.71429 C807.176339,3932.71429 802.857143,3928.58705 802.857143,3923.5 C802.857143,3918.41295 807.176339,3914.28571 812.5,3914.28571 C817.823661,3914.28571 822.142857,3918.41295 822.142857,3923.5 C822.142857,3928.58705 817.823661,3932.71429 812.5,3932.71429 L812.5,3932.71429 Z M798.859375,3910.46562 C800.737723,3908.67076 802.927455,3907.29821 805.31808,3906.38638 L807.216518,3912.28929 C805.810268,3912.89397 804.524554,3913.73862 803.399554,3914.81362 C802.274554,3915.88862 801.390625,3917.11719 800.757812,3918.46094 L794.580357,3916.64687 C795.544643,3914.3529 796.991071,3912.26049 798.859375,3910.46562 L798.859375,3910.46562 Z M794.590402,3930.36272 L800.767857,3928.54866 C801.40067,3929.89241 802.284598,3931.12098 803.409598,3932.19598 C804.534598,3933.27098 805.820312,3934.11562 807.226562,3934.72031 L805.328125,3940.62321 C802.9375,3939.71138 800.747768,3938.32924 798.86942,3936.54397 C796.991071,3934.73951 795.544643,3932.6471 794.590402,3930.36272 L794.590402,3930.36272 Z M826.140625,3936.53437 C824.262277,3938.32924 822.072545,3939.70178 819.68192,3940.61362 L817.783482,3934.71071 C819.189732,3934.10603 820.475446,3933.26138 821.600446,3932.18638 C822.725446,3931.11138 823.609375,3929.88281 824.242188,3928.53906 L830.419643,3930.35313 C829.455357,3932.6471 828.008929,3934.73951 826.140625,3936.53437 L826.140625,3936.53437 Z" id="Page-1"></path>
        </g>
    </g>
</svg>